<?xml version="1.0" encoding="utf-8"?>
<!-- Generator: Adobe Illustrator 24.0.1, SVG Export Plug-In . SVG Version: 6.00 Build 0)  -->
<svg version="1.1" id="logo" xmlns="http://www.w3.org/2000/svg" xmlns:xlink="http://www.w3.org/1999/xlink" x="0px" y="0px"
	 viewBox="0 0 600 600" style="enable-background:new 0 0 600 600;" xml:space="preserve">
<style type="text/css">
	.st0{fill:#1A1A1A;}
	.st1{fill:#333333;}
	.st2{fill:#F8971D;}
</style>
<path class="st0" d="M533.34,299.95c0.64,128.49-103.82,233.67-233.36,233.67C167.58,533.6,65.07,424.07,66.67,297.52
	C68.29,169.6,172.95,64.43,303.51,66.42C434.52,68.41,534.26,176.12,533.34,299.95z"/>
<path class="st1" d="M307.16,285.94c0,0,4.89-6,6.14-7.65c42.47-56.12,98.32-88.83,168.47-96.61c1.34-0.15,14.68-1.11,14.68-1.11
	s-13.41-1.41-14.69-1.57c-7.82-0.96-15.66-1.76-23.37-3.39c-55.29-11.7-100.96-39.38-137.02-82.83
	c-1.89-2.28-15.24-21.61-15.24-21.61s6.42,16.48,7.85,20.03c15.58,38.65,20.51,78.71,15.37,119.98
	c-2.79,22.43-8.42,44.24-17.96,64.76C310.59,277.69,307.16,285.94,307.16,285.94z"/>
<path class="st1" d="M291.39,286.69c0,0-2.74-7.25-3.54-9.16c-27.23-64.9-27.49-129.62,0.97-194.2c0.54-1.23,6.41-13.26,6.41-13.26
	s-7.95,10.89-8.73,11.92c-4.75,6.28-9.38,12.67-14.66,18.51c-37.86,41.95-84.72,67.57-140.4,76.95c-2.92,0.49-26.34,2.34-26.34,2.34
	s17.48,2.72,21.26,3.26c41.25,5.92,78.37,21.76,111.49,46.91c18,13.67,34.04,29.48,47,48.03
	C285.98,279.58,291.39,286.69,291.39,286.69z"/>
<path class="st1" d="M315.72,299.23c0,0,7.65,1.24,9.7,1.49c69.83,8.72,126.09,40.74,167.9,97.59c0.8,1.09,8.3,12.16,8.3,12.16
	s-5.48-12.32-5.99-13.51c-3.08-7.25-6.31-14.44-8.75-21.93c-17.51-53.73-16.38-107.12,3.23-160.08c1.03-2.78,11.1-24,11.1-24
	s-11.07,13.8-13.42,16.81c-25.68,32.82-57.91,57.12-96.22,73.3c-20.82,8.8-42.52,14.83-65.06,16.83
	C324.58,298.08,315.72,299.23,315.72,299.23z"/>
<path class="st1" d="M308.27,313.29c0,0,2.61,7.29,3.38,9.21c26.14,65.34,25.34,130.06-4.2,194.16c-0.56,1.22-6.63,13.15-6.63,13.15
	s8.13-10.76,8.92-11.77c4.86-6.2,9.59-12.51,14.96-18.27c38.55-41.32,85.83-66.15,141.66-74.61c2.93-0.44,26.38-1.9,26.38-1.9
	s-17.43-3.01-21.2-3.62c-41.15-6.6-78-23.06-110.7-48.75c-17.77-13.97-33.55-30.04-46.2-48.8
	C313.56,320.49,308.27,313.29,308.27,313.29z"/>
<path class="st1" d="M284.43,300.52c0,0-7.63-1.31-9.69-1.58c-69.75-9.35-125.71-41.87-167.01-99.1
	c-0.79-1.09-8.19-12.24-8.19-12.24s5.37,12.37,5.87,13.56c3.01,7.28,6.18,14.5,8.55,22.01c17.03,53.88,15.41,107.26-4.67,160.04
	c-1.05,2.77-11.31,23.9-11.31,23.9s11.19-13.7,13.57-16.69c25.97-32.59,58.42-56.59,96.87-72.43c20.9-8.61,42.65-14.45,65.21-16.24
	C275.56,301.6,284.43,300.52,284.43,300.52z"/>
<path class="st2" d="M292.63,311c0,0-5.36,7.55-6.67,9.34c-12,16.45-25.65,31.38-41.53,44.13c-7.5,6.02-12.16,9.07-23.29,17.07
	c-11.12,8.01-23.88,36.89-0.82,51.77c24.76,15.98,42.81-1.74,45.12-15.28c1.11-6.48,2.39-14.49,3.16-21.38
	c3.01-26.9,8.85-50.69,19.25-74.23L292.63,311z"/>
</svg>
